%TF.GenerationSoftware,KiCad,Pcbnew,6.0.2+dfsg-1*%
%TF.CreationDate,2023-03-03T12:49:29-07:00*%
%TF.ProjectId,flex_fixture,666c6578-5f66-4697-9874-7572652e6b69,rev?*%
%TF.SameCoordinates,Original*%
%TF.FileFunction,Soldermask,Bot*%
%TF.FilePolarity,Negative*%
%FSLAX46Y46*%
G04 Gerber Fmt 4.6, Leading zero omitted, Abs format (unit mm)*
G04 Created by KiCad (PCBNEW 6.0.2+dfsg-1) date 2023-03-03 12:49:29*
%MOMM*%
%LPD*%
G01*
G04 APERTURE LIST*
G04 Aperture macros list*
%AMFreePoly0*
4,1,22,0.550000,-0.750000,0.000000,-0.750000,0.000000,-0.745033,-0.079941,-0.743568,-0.215256,-0.701293,-0.333266,-0.622738,-0.424486,-0.514219,-0.481581,-0.384460,-0.499164,-0.250000,-0.500000,-0.250000,-0.500000,0.250000,-0.499164,0.250000,-0.499963,0.256109,-0.478152,0.396186,-0.417904,0.524511,-0.324060,0.630769,-0.204165,0.706417,-0.067858,0.745374,0.000000,0.744959,0.000000,0.750000,
0.550000,0.750000,0.550000,-0.750000,0.550000,-0.750000,$1*%
%AMFreePoly1*
4,1,20,0.000000,0.744959,0.073905,0.744508,0.209726,0.703889,0.328688,0.626782,0.421226,0.519385,0.479903,0.390333,0.500000,0.250000,0.500000,-0.250000,0.499851,-0.262216,0.476331,-0.402017,0.414519,-0.529596,0.319384,-0.634700,0.198574,-0.708877,0.061801,-0.746166,0.000000,-0.745033,0.000000,-0.750000,-0.550000,-0.750000,-0.550000,0.750000,0.000000,0.750000,0.000000,0.744959,
0.000000,0.744959,$1*%
G04 Aperture macros list end*
%ADD10C,1.400000*%
%ADD11C,4.000000*%
%ADD12C,0.500000*%
%ADD13C,4.300000*%
%ADD14R,1.700000X1.700000*%
%ADD15O,1.700000X1.700000*%
%ADD16FreePoly0,0.000000*%
%ADD17R,1.000000X1.500000*%
%ADD18FreePoly1,0.000000*%
G04 APERTURE END LIST*
D10*
%TO.C,J1*%
X104100000Y-98765000D03*
X101560000Y-98765000D03*
D11*
X109180000Y-93685000D03*
X99020000Y-93685000D03*
%TD*%
D12*
%TO.C,H8*%
X118800000Y-99650000D03*
X121800000Y-99662000D03*
X118800000Y-98900000D03*
X118800000Y-100412000D03*
X121800000Y-100412000D03*
X121800000Y-98900000D03*
X121800000Y-98150000D03*
X118800000Y-98150000D03*
X118800000Y-97376000D03*
X121800000Y-97376000D03*
%TD*%
%TO.C,H7*%
X118800000Y-89250000D03*
X121800000Y-89262000D03*
X118800000Y-88500000D03*
X118800000Y-90012000D03*
X121800000Y-90012000D03*
X121800000Y-88500000D03*
X121800000Y-87750000D03*
X118800000Y-87750000D03*
X118800000Y-86976000D03*
X121800000Y-86976000D03*
%TD*%
D13*
%TO.C,H2*%
X93300000Y-105200000D03*
%TD*%
%TO.C,H6*%
X133800000Y-93700000D03*
%TD*%
%TO.C,H1*%
X93300000Y-81800000D03*
%TD*%
%TO.C,H4*%
X114900000Y-105200000D03*
%TD*%
D14*
%TO.C,J3*%
X130470000Y-83800000D03*
D15*
X127930000Y-83800000D03*
%TD*%
D14*
%TO.C,J6*%
X133010000Y-83800000D03*
%TD*%
D13*
%TO.C,H5*%
X124600000Y-93700000D03*
%TD*%
D14*
%TO.C,J5*%
X125390000Y-83800000D03*
%TD*%
%TO.C,J4*%
X129200000Y-102300000D03*
%TD*%
D13*
%TO.C,H3*%
X114900000Y-81800000D03*
%TD*%
D14*
%TO.C,J2*%
X105275000Y-103900000D03*
D15*
X102735000Y-103900000D03*
%TD*%
D16*
%TO.C,JP1*%
X127900000Y-88042500D03*
D17*
X129200000Y-88042500D03*
D18*
X130500000Y-88042500D03*
%TD*%
M02*
