%TF.GenerationSoftware,KiCad,Pcbnew,6.0.2+dfsg-1*%
%TF.CreationDate,2023-03-03T12:49:29-07:00*%
%TF.ProjectId,flex_fixture,666c6578-5f66-4697-9874-7572652e6b69,rev?*%
%TF.SameCoordinates,Original*%
%TF.FileFunction,Profile,NP*%
%FSLAX46Y46*%
G04 Gerber Fmt 4.6, Leading zero omitted, Abs format (unit mm)*
G04 Created by KiCad (PCBNEW 6.0.2+dfsg-1) date 2023-03-03 12:49:29*
%MOMM*%
%LPD*%
G01*
G04 APERTURE LIST*
%TA.AperFunction,Profile*%
%ADD10C,0.100000*%
%TD*%
G04 APERTURE END LIST*
D10*
X93300000Y-109100000D02*
X114900000Y-109100000D01*
X93300000Y-77900000D02*
X114900000Y-77900000D01*
X89400000Y-105200000D02*
G75*
G03*
X93300000Y-109100000I3900000J0D01*
G01*
X93300000Y-77900000D02*
G75*
G03*
X89400000Y-81800000I0J-3900000D01*
G01*
X89400000Y-105200000D02*
X89400000Y-81800000D01*
X118800000Y-81800000D02*
G75*
G03*
X114900000Y-77900000I-3900000J0D01*
G01*
X114900000Y-109100000D02*
G75*
G03*
X118800000Y-105200000I0J3900000D01*
G01*
X118800000Y-101900000D02*
X118800000Y-105200000D01*
X118800000Y-85500000D02*
X118800000Y-81800000D01*
X118800000Y-91500000D02*
X118800000Y-95900000D01*
X121800000Y-91500000D02*
X121800000Y-95900000D01*
X121800000Y-91500000D02*
G75*
G03*
X118800000Y-91500000I-1500000J0D01*
G01*
X118800000Y-95900000D02*
G75*
G03*
X121800000Y-95900000I1500000J0D01*
G01*
X121800000Y-102200000D02*
X121800000Y-101900000D01*
X121800000Y-83900000D02*
X121800000Y-85500000D01*
X118800000Y-85500000D02*
G75*
G03*
X121800000Y-85500000I1500000J0D01*
G01*
X121800000Y-101900000D02*
G75*
G03*
X118800000Y-101900000I-1500000J0D01*
G01*
X121800000Y-102200000D02*
G75*
G03*
X123300000Y-103700000I1500001J1D01*
G01*
X135100000Y-103700000D02*
G75*
G03*
X136600000Y-102200000I-1J1500001D01*
G01*
X136600000Y-102200000D02*
X136600000Y-83900000D01*
X123300000Y-82400000D02*
G75*
G03*
X121800000Y-83900000I1J-1500001D01*
G01*
X123300000Y-103700000D02*
X135100000Y-103700000D01*
X136600000Y-83900000D02*
G75*
G03*
X135100000Y-82400000I-1500001J-1D01*
G01*
X123300000Y-82400000D02*
X135100000Y-82400000D01*
M02*
