%TF.GenerationSoftware,KiCad,Pcbnew,6.0.2+dfsg-1*%
%TF.CreationDate,2023-03-03T12:49:29-07:00*%
%TF.ProjectId,flex_fixture,666c6578-5f66-4697-9874-7572652e6b69,rev?*%
%TF.SameCoordinates,Original*%
%TF.FileFunction,Copper,L2,Bot*%
%TF.FilePolarity,Positive*%
%FSLAX46Y46*%
G04 Gerber Fmt 4.6, Leading zero omitted, Abs format (unit mm)*
G04 Created by KiCad (PCBNEW 6.0.2+dfsg-1) date 2023-03-03 12:49:29*
%MOMM*%
%LPD*%
G01*
G04 APERTURE LIST*
G04 Aperture macros list*
%AMFreePoly0*
4,1,22,0.550000,-0.750000,0.000000,-0.750000,0.000000,-0.745033,-0.079941,-0.743568,-0.215256,-0.701293,-0.333266,-0.622738,-0.424486,-0.514219,-0.481581,-0.384460,-0.499164,-0.250000,-0.500000,-0.250000,-0.500000,0.250000,-0.499164,0.250000,-0.499963,0.256109,-0.478152,0.396186,-0.417904,0.524511,-0.324060,0.630769,-0.204165,0.706417,-0.067858,0.745374,0.000000,0.744959,0.000000,0.750000,
0.550000,0.750000,0.550000,-0.750000,0.550000,-0.750000,$1*%
%AMFreePoly1*
4,1,20,0.000000,0.744959,0.073905,0.744508,0.209726,0.703889,0.328688,0.626782,0.421226,0.519385,0.479903,0.390333,0.500000,0.250000,0.500000,-0.250000,0.499851,-0.262216,0.476331,-0.402017,0.414519,-0.529596,0.319384,-0.634700,0.198574,-0.708877,0.061801,-0.746166,0.000000,-0.745033,0.000000,-0.750000,-0.550000,-0.750000,-0.550000,0.750000,0.000000,0.750000,0.000000,0.744959,
0.000000,0.744959,$1*%
G04 Aperture macros list end*
%TA.AperFunction,ComponentPad*%
%ADD10C,1.400000*%
%TD*%
%TA.AperFunction,ComponentPad*%
%ADD11C,4.000000*%
%TD*%
%TA.AperFunction,ComponentPad*%
%ADD12R,1.700000X1.700000*%
%TD*%
%TA.AperFunction,ComponentPad*%
%ADD13O,1.700000X1.700000*%
%TD*%
%TA.AperFunction,SMDPad,CuDef*%
%ADD14FreePoly0,0.000000*%
%TD*%
%TA.AperFunction,SMDPad,CuDef*%
%ADD15R,1.000000X1.500000*%
%TD*%
%TA.AperFunction,SMDPad,CuDef*%
%ADD16FreePoly1,0.000000*%
%TD*%
%TA.AperFunction,Conductor*%
%ADD17C,0.800000*%
%TD*%
%TA.AperFunction,Conductor*%
%ADD18C,0.250000*%
%TD*%
G04 APERTURE END LIST*
D10*
%TO.P,J1,1,In*%
%TO.N,Net-(J1-Pad1)*%
X104100000Y-98765000D03*
%TO.P,J1,2,Ext*%
%TO.N,Net-(J1-Pad2)*%
X101560000Y-98765000D03*
D11*
%TO.P,J1,~*%
%TO.N,N/C*%
X109180000Y-93685000D03*
X99020000Y-93685000D03*
%TD*%
D12*
%TO.P,J3,1,Pin_1*%
%TO.N,Net-(J3-Pad1)*%
X130470000Y-83800000D03*
D13*
%TO.P,J3,2,Pin_2*%
%TO.N,Net-(J3-Pad2)*%
X127930000Y-83800000D03*
%TD*%
D12*
%TO.P,J6,1,Pin_1*%
%TO.N,Net-(J6-Pad1)*%
X133010000Y-83800000D03*
%TD*%
%TO.P,J5,1,Pin_1*%
%TO.N,Net-(J3-Pad2)*%
X125390000Y-83800000D03*
%TD*%
%TO.P,J4,1,Pin_1*%
%TO.N,Net-(J3-Pad1)*%
X129200000Y-102300000D03*
%TD*%
%TO.P,J2,1,Pin_1*%
%TO.N,Net-(J1-Pad1)*%
X105275000Y-103900000D03*
D13*
%TO.P,J2,2,Pin_2*%
%TO.N,Net-(J1-Pad2)*%
X102735000Y-103900000D03*
%TD*%
D14*
%TO.P,JP1,1,A*%
%TO.N,Net-(J3-Pad2)*%
X127900000Y-88042500D03*
D15*
%TO.P,JP1,2,C*%
%TO.N,Net-(J3-Pad1)*%
X129200000Y-88042500D03*
D16*
%TO.P,JP1,3,B*%
%TO.N,Net-(J6-Pad1)*%
X130500000Y-88042500D03*
%TD*%
D17*
%TO.N,Net-(J1-Pad2)*%
X102734999Y-101601700D02*
G75*
G03*
X101559999Y-98765001I-4011703J-2D01*
G01*
X102735000Y-101601700D02*
X102735000Y-103900000D01*
%TO.N,Net-(J1-Pad1)*%
X105274999Y-101601700D02*
G75*
G03*
X104099999Y-98765001I-4011703J-2D01*
G01*
X105275000Y-101601700D02*
X105275000Y-103900000D01*
%TO.N,Net-(J6-Pad1)*%
X131784938Y-86757563D02*
G75*
G03*
X133010000Y-83800000I-2957565J2957563D01*
G01*
X131784938Y-86757563D02*
X130500000Y-88042500D01*
%TO.N,Net-(J3-Pad2)*%
X125390000Y-83800000D02*
X127930000Y-83800000D01*
X127930000Y-83800000D02*
X127930000Y-87970074D01*
X127900000Y-88042500D02*
G75*
G03*
X127930000Y-87970074I-72427J72427D01*
G01*
%TO.N,Net-(J3-Pad1)*%
X129200000Y-88042500D02*
X129200000Y-86866051D01*
X130470000Y-83800000D02*
G75*
G03*
X129200000Y-86866051I3066052J-3066052D01*
G01*
X129200000Y-88042500D02*
X129200000Y-102300000D01*
D18*
%TO.N,Net-(J3-Pad2)*%
X127930000Y-88012500D02*
X127900000Y-88042500D01*
%TD*%
M02*
