%TF.GenerationSoftware,KiCad,Pcbnew,6.0.2+dfsg-1*%
%TF.CreationDate,2023-03-03T12:49:29-07:00*%
%TF.ProjectId,flex_fixture,666c6578-5f66-4697-9874-7572652e6b69,rev?*%
%TF.SameCoordinates,Original*%
%TF.FileFunction,Legend,Top*%
%TF.FilePolarity,Positive*%
%FSLAX46Y46*%
G04 Gerber Fmt 4.6, Leading zero omitted, Abs format (unit mm)*
G04 Created by KiCad (PCBNEW 6.0.2+dfsg-1) date 2023-03-03 12:49:29*
%MOMM*%
%LPD*%
G01*
G04 APERTURE LIST*
%ADD10C,0.300000*%
%ADD11C,0.400000*%
%ADD12C,0.440000*%
%ADD13C,0.150000*%
%ADD14C,0.120000*%
%ADD15C,0.100000*%
G04 APERTURE END LIST*
D10*
X125842857Y-100478571D02*
X125842857Y-98978571D01*
X126414285Y-98978571D01*
X126557142Y-99050000D01*
X126628571Y-99121428D01*
X126700000Y-99264285D01*
X126700000Y-99478571D01*
X126628571Y-99621428D01*
X126557142Y-99692857D01*
X126414285Y-99764285D01*
X125842857Y-99764285D01*
X128200000Y-100478571D02*
X127700000Y-99764285D01*
X127342857Y-100478571D02*
X127342857Y-98978571D01*
X127914285Y-98978571D01*
X128057142Y-99050000D01*
X128128571Y-99121428D01*
X128200000Y-99264285D01*
X128200000Y-99478571D01*
X128128571Y-99621428D01*
X128057142Y-99692857D01*
X127914285Y-99764285D01*
X127342857Y-99764285D01*
X129128571Y-98978571D02*
X129414285Y-98978571D01*
X129557142Y-99050000D01*
X129700000Y-99192857D01*
X129771428Y-99478571D01*
X129771428Y-99978571D01*
X129700000Y-100264285D01*
X129557142Y-100407142D01*
X129414285Y-100478571D01*
X129128571Y-100478571D01*
X128985714Y-100407142D01*
X128842857Y-100264285D01*
X128771428Y-99978571D01*
X128771428Y-99478571D01*
X128842857Y-99192857D01*
X128985714Y-99050000D01*
X129128571Y-98978571D01*
X130914285Y-99692857D02*
X131128571Y-99764285D01*
X131200000Y-99835714D01*
X131271428Y-99978571D01*
X131271428Y-100192857D01*
X131200000Y-100335714D01*
X131128571Y-100407142D01*
X130985714Y-100478571D01*
X130414285Y-100478571D01*
X130414285Y-98978571D01*
X130914285Y-98978571D01*
X131057142Y-99050000D01*
X131128571Y-99121428D01*
X131200000Y-99264285D01*
X131200000Y-99407142D01*
X131128571Y-99550000D01*
X131057142Y-99621428D01*
X130914285Y-99692857D01*
X130414285Y-99692857D01*
X131914285Y-99692857D02*
X132414285Y-99692857D01*
X132628571Y-100478571D02*
X131914285Y-100478571D01*
X131914285Y-98978571D01*
X132628571Y-98978571D01*
X124827500Y-88642857D02*
X124756071Y-88785714D01*
X124756071Y-89000000D01*
X124827500Y-89214285D01*
X124970357Y-89357142D01*
X125113214Y-89428571D01*
X125398928Y-89500000D01*
X125613214Y-89500000D01*
X125898928Y-89428571D01*
X126041785Y-89357142D01*
X126184642Y-89214285D01*
X126256071Y-89000000D01*
X126256071Y-88857142D01*
X126184642Y-88642857D01*
X126113214Y-88571428D01*
X125613214Y-88571428D01*
X125613214Y-88857142D01*
X126256071Y-87928571D02*
X124756071Y-87928571D01*
X126256071Y-87071428D01*
X124756071Y-87071428D01*
X126256071Y-86357142D02*
X124756071Y-86357142D01*
X124756071Y-86000000D01*
X124827500Y-85785714D01*
X124970357Y-85642857D01*
X125113214Y-85571428D01*
X125398928Y-85500000D01*
X125613214Y-85500000D01*
X125898928Y-85571428D01*
X126041785Y-85642857D01*
X126184642Y-85785714D01*
X126256071Y-86000000D01*
X126256071Y-86357142D01*
X127242500Y-88642857D02*
X127171071Y-88785714D01*
X127171071Y-89000000D01*
X127242500Y-89214285D01*
X127385357Y-89357142D01*
X127528214Y-89428571D01*
X127813928Y-89500000D01*
X128028214Y-89500000D01*
X128313928Y-89428571D01*
X128456785Y-89357142D01*
X128599642Y-89214285D01*
X128671071Y-89000000D01*
X128671071Y-88857142D01*
X128599642Y-88642857D01*
X128528214Y-88571428D01*
X128028214Y-88571428D01*
X128028214Y-88857142D01*
X128671071Y-87928571D02*
X127171071Y-87928571D01*
X128671071Y-87071428D01*
X127171071Y-87071428D01*
X128671071Y-86357142D02*
X127171071Y-86357142D01*
X127171071Y-86000000D01*
X127242500Y-85785714D01*
X127385357Y-85642857D01*
X127528214Y-85571428D01*
X127813928Y-85500000D01*
X128028214Y-85500000D01*
X128313928Y-85571428D01*
X128456785Y-85642857D01*
X128599642Y-85785714D01*
X128671071Y-86000000D01*
X128671071Y-86357142D01*
X131014642Y-89035714D02*
X131086071Y-88821428D01*
X131086071Y-88464285D01*
X131014642Y-88321428D01*
X130943214Y-88250000D01*
X130800357Y-88178571D01*
X130657500Y-88178571D01*
X130514642Y-88250000D01*
X130443214Y-88321428D01*
X130371785Y-88464285D01*
X130300357Y-88750000D01*
X130228928Y-88892857D01*
X130157500Y-88964285D01*
X130014642Y-89035714D01*
X129871785Y-89035714D01*
X129728928Y-88964285D01*
X129657500Y-88892857D01*
X129586071Y-88750000D01*
X129586071Y-88392857D01*
X129657500Y-88178571D01*
X131086071Y-87535714D02*
X129586071Y-87535714D01*
X129657500Y-86035714D02*
X129586071Y-86178571D01*
X129586071Y-86392857D01*
X129657500Y-86607142D01*
X129800357Y-86750000D01*
X129943214Y-86821428D01*
X130228928Y-86892857D01*
X130443214Y-86892857D01*
X130728928Y-86821428D01*
X130871785Y-86750000D01*
X131014642Y-86607142D01*
X131086071Y-86392857D01*
X131086071Y-86250000D01*
X131014642Y-86035714D01*
X130943214Y-85964285D01*
X130443214Y-85964285D01*
X130443214Y-86250000D01*
X132072500Y-88642857D02*
X132001071Y-88785714D01*
X132001071Y-89000000D01*
X132072500Y-89214285D01*
X132215357Y-89357142D01*
X132358214Y-89428571D01*
X132643928Y-89500000D01*
X132858214Y-89500000D01*
X133143928Y-89428571D01*
X133286785Y-89357142D01*
X133429642Y-89214285D01*
X133501071Y-89000000D01*
X133501071Y-88857142D01*
X133429642Y-88642857D01*
X133358214Y-88571428D01*
X132858214Y-88571428D01*
X132858214Y-88857142D01*
X133501071Y-87928571D02*
X132001071Y-87928571D01*
X133501071Y-87071428D01*
X132001071Y-87071428D01*
X133501071Y-86357142D02*
X132001071Y-86357142D01*
X132001071Y-86000000D01*
X132072500Y-85785714D01*
X132215357Y-85642857D01*
X132358214Y-85571428D01*
X132643928Y-85500000D01*
X132858214Y-85500000D01*
X133143928Y-85571428D01*
X133286785Y-85642857D01*
X133429642Y-85785714D01*
X133501071Y-86000000D01*
X133501071Y-86357142D01*
D11*
X97300000Y-106685714D02*
X97157142Y-106971428D01*
X97157142Y-107400000D01*
X97300000Y-107828571D01*
X97585714Y-108114285D01*
X97871428Y-108257142D01*
X98442857Y-108400000D01*
X98871428Y-108400000D01*
X99442857Y-108257142D01*
X99728571Y-108114285D01*
X100014285Y-107828571D01*
X100157142Y-107400000D01*
X100157142Y-107114285D01*
X100014285Y-106685714D01*
X99871428Y-106542857D01*
X98871428Y-106542857D01*
X98871428Y-107114285D01*
X100157142Y-105257142D02*
X97157142Y-105257142D01*
X100157142Y-103542857D01*
X97157142Y-103542857D01*
X100157142Y-102114285D02*
X97157142Y-102114285D01*
X97157142Y-101400000D01*
X97300000Y-100971428D01*
X97585714Y-100685714D01*
X97871428Y-100542857D01*
X98442857Y-100400000D01*
X98871428Y-100400000D01*
X99442857Y-100542857D01*
X99728571Y-100685714D01*
X100014285Y-100971428D01*
X100157142Y-101400000D01*
X100157142Y-102114285D01*
D12*
X111014285Y-108171428D02*
X111157142Y-107742857D01*
X111157142Y-107028571D01*
X111014285Y-106742857D01*
X110871428Y-106600000D01*
X110585714Y-106457142D01*
X110300000Y-106457142D01*
X110014285Y-106600000D01*
X109871428Y-106742857D01*
X109728571Y-107028571D01*
X109585714Y-107600000D01*
X109442857Y-107885714D01*
X109300000Y-108028571D01*
X109014285Y-108171428D01*
X108728571Y-108171428D01*
X108442857Y-108028571D01*
X108300000Y-107885714D01*
X108157142Y-107600000D01*
X108157142Y-106885714D01*
X108300000Y-106457142D01*
X111157142Y-105171428D02*
X108157142Y-105171428D01*
X108300000Y-102171428D02*
X108157142Y-102457142D01*
X108157142Y-102885714D01*
X108300000Y-103314285D01*
X108585714Y-103600000D01*
X108871428Y-103742857D01*
X109442857Y-103885714D01*
X109871428Y-103885714D01*
X110442857Y-103742857D01*
X110728571Y-103600000D01*
X111014285Y-103314285D01*
X111157142Y-102885714D01*
X111157142Y-102600000D01*
X111014285Y-102171428D01*
X110871428Y-102028571D01*
X109871428Y-102028571D01*
X109871428Y-102600000D01*
D13*
%TO.C,J1*%
X104266666Y-90037380D02*
X104266666Y-90751666D01*
X104219047Y-90894523D01*
X104123809Y-90989761D01*
X103980952Y-91037380D01*
X103885714Y-91037380D01*
X105266666Y-91037380D02*
X104695238Y-91037380D01*
X104980952Y-91037380D02*
X104980952Y-90037380D01*
X104885714Y-90180238D01*
X104790476Y-90275476D01*
X104695238Y-90323095D01*
%TO.C,J3*%
X132692380Y-79753333D02*
X133406666Y-79753333D01*
X133549523Y-79800952D01*
X133644761Y-79896190D01*
X133692380Y-80039047D01*
X133692380Y-80134285D01*
X132692380Y-79372380D02*
X132692380Y-78753333D01*
X133073333Y-79086666D01*
X133073333Y-78943809D01*
X133120952Y-78848571D01*
X133168571Y-78800952D01*
X133263809Y-78753333D01*
X133501904Y-78753333D01*
X133597142Y-78800952D01*
X133644761Y-78848571D01*
X133692380Y-78943809D01*
X133692380Y-79229523D01*
X133644761Y-79324761D01*
X133597142Y-79372380D01*
D14*
%TO.C,J1*%
X98800000Y-84685000D02*
X109400000Y-84685000D01*
X109400000Y-84685000D02*
X109400000Y-64385000D01*
X109400000Y-64385000D02*
X98800000Y-64385000D01*
X98800000Y-64385000D02*
X98800000Y-84685000D01*
X96700000Y-84685000D02*
X111500000Y-84685000D01*
X111500000Y-84685000D02*
X111500000Y-99585000D01*
X111500000Y-99585000D02*
X96700000Y-99585000D01*
X96700000Y-99585000D02*
X96700000Y-84685000D01*
D15*
%TO.C,H8*%
X121800000Y-101900000D02*
G75*
G03*
X118800000Y-101900000I-1500000J0D01*
G01*
X118800000Y-95900000D02*
G75*
G03*
X121800000Y-95900000I1500000J0D01*
G01*
%TO.C,H7*%
X121800000Y-91500000D02*
G75*
G03*
X118800000Y-91500000I-1500000J0D01*
G01*
X118800000Y-85500000D02*
G75*
G03*
X121800000Y-85500000I1500000J0D01*
G01*
D14*
%TO.C,J3*%
X130499050Y-73710000D02*
X130499050Y-82340000D01*
X129318100Y-73710000D02*
X129318100Y-82340000D01*
X127570000Y-82340000D02*
X127570000Y-82750000D01*
X130144765Y-73710000D02*
X130144765Y-82340000D01*
X130380955Y-73710000D02*
X130380955Y-82340000D01*
X129790480Y-73710000D02*
X129790480Y-82340000D01*
X131207620Y-73710000D02*
X131207620Y-82340000D01*
X130971430Y-73710000D02*
X130971430Y-82340000D01*
X131443810Y-73710000D02*
X131443810Y-82340000D01*
X129436195Y-73710000D02*
X129436195Y-82340000D01*
X128290000Y-82340000D02*
X128290000Y-82750000D01*
X131325715Y-73710000D02*
X131325715Y-82340000D01*
X131680000Y-73710000D02*
X131680000Y-82340000D01*
X131800000Y-73710000D02*
X131800000Y-82340000D01*
X131561905Y-73710000D02*
X131561905Y-82340000D01*
X130026670Y-73710000D02*
X130026670Y-82340000D01*
X131800000Y-82340000D02*
X126600000Y-82340000D01*
X130262860Y-73710000D02*
X130262860Y-82340000D01*
X130830000Y-82340000D02*
X130830000Y-82690000D01*
X129908575Y-73710000D02*
X129908575Y-82340000D01*
X130853335Y-73710000D02*
X130853335Y-82340000D01*
X131800000Y-84910000D02*
X130470000Y-84910000D01*
X126600000Y-73710000D02*
X126600000Y-82340000D01*
X130735240Y-73710000D02*
X130735240Y-82340000D01*
X129554290Y-73710000D02*
X129554290Y-82340000D01*
X130110000Y-82340000D02*
X130110000Y-82690000D01*
X129672385Y-73710000D02*
X129672385Y-82340000D01*
X131800000Y-83800000D02*
X131800000Y-84910000D01*
X129200000Y-73710000D02*
X129200000Y-82340000D01*
X131800000Y-73710000D02*
X126600000Y-73710000D01*
X131089525Y-73710000D02*
X131089525Y-82340000D01*
X130617145Y-73710000D02*
X130617145Y-82340000D01*
%TO.C,J6*%
X134340000Y-82340000D02*
X131680000Y-82340000D01*
X132650000Y-82340000D02*
X132650000Y-82690000D01*
X132488175Y-73710000D02*
X132488175Y-82340000D01*
X133873635Y-73710000D02*
X133873635Y-82340000D01*
X131680000Y-73710000D02*
X131680000Y-82340000D01*
X133989090Y-73710000D02*
X133989090Y-82340000D01*
X133370000Y-82340000D02*
X133370000Y-82690000D01*
X132949995Y-73710000D02*
X132949995Y-82340000D01*
X132834540Y-73710000D02*
X132834540Y-82340000D01*
X133065450Y-73710000D02*
X133065450Y-82340000D01*
X133527270Y-73710000D02*
X133527270Y-82340000D01*
X134104545Y-73710000D02*
X134104545Y-82340000D01*
X131795445Y-73710000D02*
X131795445Y-82340000D01*
X134340000Y-73710000D02*
X131680000Y-73710000D01*
X132141810Y-73710000D02*
X132141810Y-82340000D01*
X132372720Y-73710000D02*
X132372720Y-82340000D01*
X133758180Y-73710000D02*
X133758180Y-82340000D01*
X133411815Y-73710000D02*
X133411815Y-82340000D01*
X132257265Y-73710000D02*
X132257265Y-82340000D01*
X132719085Y-73710000D02*
X132719085Y-82340000D01*
X131910900Y-73710000D02*
X131910900Y-82340000D01*
X132603630Y-73710000D02*
X132603630Y-82340000D01*
X134340000Y-84910000D02*
X133010000Y-84910000D01*
X133180905Y-73710000D02*
X133180905Y-82340000D01*
X134340000Y-73710000D02*
X134340000Y-82340000D01*
X133296360Y-73710000D02*
X133296360Y-82340000D01*
X133642725Y-73710000D02*
X133642725Y-82340000D01*
X134340000Y-83800000D02*
X134340000Y-84910000D01*
X134220000Y-73710000D02*
X134220000Y-82340000D01*
X132026355Y-73710000D02*
X132026355Y-82340000D01*
%TO.C,J5*%
X125560905Y-73710000D02*
X125560905Y-82340000D01*
X124060000Y-73710000D02*
X124060000Y-82340000D01*
X124983630Y-73710000D02*
X124983630Y-82340000D01*
X125445450Y-73710000D02*
X125445450Y-82340000D01*
X126720000Y-82340000D02*
X124060000Y-82340000D01*
X125030000Y-82340000D02*
X125030000Y-82690000D01*
X124868175Y-73710000D02*
X124868175Y-82340000D01*
X126484545Y-73710000D02*
X126484545Y-82340000D01*
X125214540Y-73710000D02*
X125214540Y-82340000D01*
X124290900Y-73710000D02*
X124290900Y-82340000D01*
X125676360Y-73710000D02*
X125676360Y-82340000D01*
X126720000Y-83800000D02*
X126720000Y-84910000D01*
X124637265Y-73710000D02*
X124637265Y-82340000D01*
X124521810Y-73710000D02*
X124521810Y-82340000D01*
X124175445Y-73710000D02*
X124175445Y-82340000D01*
X126600000Y-73710000D02*
X126600000Y-82340000D01*
X125750000Y-82340000D02*
X125750000Y-82690000D01*
X126720000Y-73710000D02*
X124060000Y-73710000D01*
X125791815Y-73710000D02*
X125791815Y-82340000D01*
X126138180Y-73710000D02*
X126138180Y-82340000D01*
X125099085Y-73710000D02*
X125099085Y-82340000D01*
X125907270Y-73710000D02*
X125907270Y-82340000D01*
X126720000Y-73710000D02*
X126720000Y-82340000D01*
X126022725Y-73710000D02*
X126022725Y-82340000D01*
X126253635Y-73710000D02*
X126253635Y-82340000D01*
X125329995Y-73710000D02*
X125329995Y-82340000D01*
X126720000Y-84910000D02*
X125390000Y-84910000D01*
X124406355Y-73710000D02*
X124406355Y-82340000D01*
X124752720Y-73710000D02*
X124752720Y-82340000D01*
X126369090Y-73710000D02*
X126369090Y-82340000D01*
%TO.C,J4*%
X130414555Y-112390000D02*
X130414555Y-103760000D01*
X127990000Y-112390000D02*
X127990000Y-103760000D01*
X128913640Y-112390000D02*
X128913640Y-103760000D01*
X128336365Y-112390000D02*
X128336365Y-103760000D01*
X129490915Y-112390000D02*
X129490915Y-103760000D01*
X130183645Y-112390000D02*
X130183645Y-103760000D01*
X128451820Y-112390000D02*
X128451820Y-103760000D01*
X127870000Y-112390000D02*
X130530000Y-112390000D01*
X130299100Y-112390000D02*
X130299100Y-103760000D01*
X127870000Y-101190000D02*
X129200000Y-101190000D01*
X129375460Y-112390000D02*
X129375460Y-103760000D01*
X129029095Y-112390000D02*
X129029095Y-103760000D01*
X130068190Y-112390000D02*
X130068190Y-103760000D01*
X129952735Y-112390000D02*
X129952735Y-103760000D01*
X127870000Y-112390000D02*
X127870000Y-103760000D01*
X129560000Y-103760000D02*
X129560000Y-103410000D01*
X130530000Y-112390000D02*
X130530000Y-103760000D01*
X128567275Y-112390000D02*
X128567275Y-103760000D01*
X127870000Y-102300000D02*
X127870000Y-101190000D01*
X129260005Y-112390000D02*
X129260005Y-103760000D01*
X128840000Y-103760000D02*
X128840000Y-103410000D01*
X129144550Y-112390000D02*
X129144550Y-103760000D01*
X128682730Y-112390000D02*
X128682730Y-103760000D01*
X129837280Y-112390000D02*
X129837280Y-103760000D01*
X129606370Y-112390000D02*
X129606370Y-103760000D01*
X128105455Y-112390000D02*
X128105455Y-103760000D01*
X128220910Y-112390000D02*
X128220910Y-103760000D01*
X129721825Y-112390000D02*
X129721825Y-103760000D01*
X128798185Y-112390000D02*
X128798185Y-103760000D01*
X127870000Y-103760000D02*
X130530000Y-103760000D01*
%TO.C,J2*%
X102355000Y-114000000D02*
X102355000Y-108000000D01*
X105655000Y-114000000D02*
X104895000Y-114000000D01*
X104895000Y-114000000D02*
X104895000Y-108000000D01*
X103115000Y-104942929D02*
X103115000Y-105340000D01*
X106605000Y-108000000D02*
X106605000Y-105340000D01*
X106545000Y-102630000D02*
X106545000Y-103900000D01*
X102355000Y-104942929D02*
X102355000Y-105340000D01*
X104005000Y-105340000D02*
X104005000Y-108000000D01*
X101405000Y-105340000D02*
X101405000Y-108000000D01*
X105475000Y-108000000D02*
X105475000Y-114000000D01*
X105655000Y-105010000D02*
X105655000Y-105340000D01*
X101405000Y-108000000D02*
X106605000Y-108000000D01*
X105275000Y-102630000D02*
X106545000Y-102630000D01*
X105595000Y-108000000D02*
X105595000Y-114000000D01*
X103115000Y-114000000D02*
X102355000Y-114000000D01*
X104895000Y-105010000D02*
X104895000Y-105340000D01*
X105115000Y-108000000D02*
X105115000Y-114000000D01*
X105655000Y-108000000D02*
X105655000Y-114000000D01*
X105355000Y-108000000D02*
X105355000Y-114000000D01*
X105235000Y-108000000D02*
X105235000Y-114000000D01*
X106605000Y-105340000D02*
X101405000Y-105340000D01*
X104995000Y-108000000D02*
X104995000Y-114000000D01*
X103115000Y-108000000D02*
X103115000Y-114000000D01*
%TD*%
M02*
