M48
; DRILL file {KiCad 6.0.2+dfsg-1} date Fri 03 Mar 2023 12:49:32 PM MST
; FORMAT={-:-/ absolute / inch / decimal}
; #@! TF.CreationDate,2023-03-03T12:49:32-07:00
; #@! TF.GenerationSoftware,Kicad,Pcbnew,6.0.2+dfsg-1
; #@! TF.FileFunction,NonPlated,1,2,NPTH
FMAT,2
INCH
; #@! TA.AperFunction,NonPlated,NPTH,ComponentDrill
T1C0.0197
; #@! TA.AperFunction,NonPlated,NPTH,ComponentDrill
T2C0.1693
%
G90
G05
T1
X4.6772Y-3.4243
X4.6772Y-3.4547
X4.6772Y-3.4843
X4.6772Y-3.5138
X4.6772Y-3.5438
X4.6772Y-3.8337
X4.6772Y-3.8642
X4.6772Y-3.8937
X4.6772Y-3.9232
X4.6772Y-3.9532
X4.7953Y-3.4243
X4.7953Y-3.4547
X4.7953Y-3.4843
X4.7953Y-3.5143
X4.7953Y-3.5438
X4.7953Y-3.8337
X4.7953Y-3.8642
X4.7953Y-3.8937
X4.7953Y-3.9237
X4.7953Y-3.9532
T2
X3.6732Y-3.2205
X3.6732Y-4.1417
X4.5236Y-3.2205
X4.5236Y-4.1417
X4.9055Y-3.689
X5.2677Y-3.689
T0
M30
